# Blender v2.77 (sub 0) OBJ File: 'drum.blend'
# www.blender.org
mtllib drum.mtl
o Cube_Cube.001
v -0.197125 2.171037 -0.659716
v -0.197125 0.171037 -0.659716
v -0.384718 2.171037 -0.602811
v -0.384718 0.171037 -0.602811
v -0.557605 2.171037 -0.510401
v -0.557605 0.171037 -0.510401
v -0.709142 2.171037 -0.386038
v -0.709142 0.171037 -0.386038
v -0.833505 2.171037 -0.234502
v -0.833505 0.171037 -0.234502
v -0.925915 2.171037 -0.061615
v -0.925915 0.171037 -0.061615
v -0.982821 2.171037 0.125978
v -0.982821 0.171037 0.125978
v -1.002036 2.171037 0.321069
v -1.002036 0.171037 0.321069
v -0.982822 2.171037 0.516159
v -0.982822 0.171037 0.516159
v -0.925916 2.171037 0.703752
v -0.925916 0.171037 0.703752
v -0.833506 2.171037 0.876639
v -0.833506 0.171037 0.876639
v -0.709144 2.171037 1.028176
v -0.709144 0.171037 1.028176
v -0.557607 2.171037 1.152539
v -0.557607 0.171037 1.152539
v -0.384720 2.171037 1.244949
v -0.384720 0.171037 1.244949
v -0.197127 2.171037 1.301855
v -0.197127 0.171037 1.301855
v -0.002037 2.171037 1.321069
v -0.002037 0.171037 1.321069
v 0.193054 2.171037 1.301855
v 0.193054 0.171037 1.301855
v 0.380647 2.171037 1.244949
v 0.380647 0.171037 1.244949
v 0.553534 2.171037 1.152539
v 0.553534 0.171037 1.152539
v 0.705070 2.171037 1.028176
v 0.705070 0.171037 1.028176
v 0.829433 2.171037 0.876640
v 0.829433 0.171037 0.876640
v 0.921843 2.171037 0.703753
v 0.921843 0.171037 0.703753
v 0.978749 2.171037 0.516160
v 0.978749 0.171037 0.516160
v 0.997964 2.171037 0.321069
v 0.997964 0.171037 0.321069
v 0.978749 2.171037 0.125979
v 0.978749 0.171037 0.125979
v 0.921843 2.171037 -0.061614
v 0.921843 0.171037 -0.061614
v 0.829433 2.171037 -0.234501
v 0.829433 0.171037 -0.234501
v 0.705070 2.171037 -0.386037
v 0.705070 0.171037 -0.386037
v 0.553534 2.171037 -0.510400
v 0.553534 0.171037 -0.510400
v 0.380647 2.171037 -0.602810
v 0.380647 0.171037 -0.602810
v 0.193054 2.171037 -0.659716
v 0.193054 0.171037 -0.659716
v -0.002036 2.171037 -0.678930
v -0.002036 0.171037 -0.678930
vn -0.7730 0.0000 0.6344
vn 0.2903 0.0000 0.9569
vn -0.6344 0.0000 0.7730
vn 0.6344 0.0000 0.7730
vn 0.4714 0.0000 0.8819
vn 0.7730 0.0000 0.6344
vn 0.8819 0.0000 0.4714
vn 0.0980 0.0000 0.9952
vn -0.0980 0.0000 0.9952
vn -0.4714 0.0000 0.8819
vn -0.2903 0.0000 0.9569
vn 0.9569 0.0000 0.2903
vn 0.8819 0.0000 -0.4714
vn 0.9952 0.0000 0.0980
vn 0.4714 0.0000 -0.8819
vn 0.0980 0.0000 -0.9952
vn 0.9569 0.0000 -0.2903
vn 0.7730 0.0000 -0.6344
vn 0.6344 0.0000 -0.7730
vn 0.9952 0.0000 -0.0980
vn 0.2903 0.0000 -0.9569
vn -0.8819 0.0000 0.4714
vn -0.9569 0.0000 0.2903
vn -0.9952 0.0000 0.0980
vn -0.9952 0.0000 -0.0980
vn -0.9569 0.0000 -0.2903
vn -0.8819 0.0000 -0.4714
vn -0.7730 0.0000 -0.6344
vn -0.6344 0.0000 -0.7730
vn -0.4714 0.0000 -0.8819
vn 0.0000 1.0000 -0.0000
vn -0.2903 0.0000 -0.9569
vn -0.0980 0.0000 -0.9952
vn 0.0000 -1.0000 0.0000
usemtl None
s off
f 24//1 23//1 21//1 22//1
f 36//2 35//2 33//2 34//2
f 26//3 25//3 23//3 24//3
f 40//4 39//4 37//4 38//4
f 38//5 37//5 35//5 36//5
f 42//6 41//6 39//6 40//6
f 44//7 43//7 41//7 42//7
f 34//8 33//8 31//8 32//8
f 32//9 31//9 29//9 30//9
f 28//10 27//10 25//10 26//10
f 30//11 29//11 27//11 28//11
f 46//12 45//12 43//12 44//12
f 54//13 53//13 51//13 52//13
f 48//14 47//14 45//14 46//14
f 60//15 59//15 57//15 58//15
f 64//16 63//16 61//16 62//16
f 52//17 51//17 49//17 50//17
f 56//18 55//18 53//18 54//18
f 58//19 57//19 55//19 56//19
f 50//20 49//20 47//20 48//20
f 62//21 61//21 59//21 60//21
f 22//22 21//22 19//22 20//22
f 20//23 19//23 17//23 18//23
f 18//24 17//24 15//24 16//24
f 16//25 15//25 13//25 14//25
f 14//26 13//26 11//26 12//26
f 12//27 11//27 9//27 10//27
f 10//28 9//28 7//28 8//28
f 8//29 7//29 5//29 6//29
f 6//30 5//30 3//30 4//30
f 21//31 23//31 25//31 27//31 29//31 31//31 33//31 35//31 37//31 39//31 41//31 43//31 45//31 47//31 49//31 51//31 53//31 55//31 57//31 59//31 61//31 63//31 1//31 3//31 5//31 7//31 9//31 11//31 13//31 15//31 17//31 19//31
f 4//32 3//32 1//32 2//32
f 2//33 1//33 63//33 64//33
f 34//34 32//34 30//34 28//34 26//34 24//34 22//34 20//34 18//34 16//34 14//34 12//34 10//34 8//34 6//34 4//34 2//34 64//34 62//34 60//34 58//34 56//34 54//34 52//34 50//34 48//34 46//34 44//34 42//34 40//34 38//34 36//34
